<svg width="651" height="650" viewBox="0 0 651 650" fill="none" xmlns="http://www.w3.org/2000/svg">
<path d="M428.682 0.252482C398.682 4.51915 380.816 9.71915 358.949 20.3858L343.882 27.7191L347.216 31.8525C360.549 48.2525 376.416 77.9858 383.749 100.119C392.282 125.986 396.682 148.652 398.949 179.052L400.416 199.319L406.549 200.386C414.549 201.719 481.482 201.719 489.482 200.386L495.616 199.319L496.549 183.719C500.149 122.519 517.349 72.6525 549.349 31.1858L552.016 27.7191L538.416 20.9191C510.282 7.05248 485.349 1.05248 453.349 0.252482C442.016 -0.147518 430.949 -0.0141848 428.682 0.252482Z" fill="black"/>
<path d="M328.016 39.0524C324.682 41.5858 322.016 44.3858 322.149 45.3191C322.282 46.1191 325.349 50.7858 329.082 55.7191C352.682 87.0524 367.749 129.719 372.149 178.119C372.949 187.319 374.016 195.186 374.416 195.586C374.949 196.119 378.549 196.919 382.549 197.319L389.749 198.252L388.816 185.186C384.949 130.386 371.749 86.6524 348.549 52.1191C342.016 42.3858 335.349 33.9858 334.416 34.2524C334.149 34.2524 331.349 36.3858 328.016 39.0524Z" fill="black"/>
<path d="M553.616 43.1858C526.949 78.3858 510.816 127.052 507.216 183.986L506.282 198.386L513.482 197.452C517.482 196.919 521.082 196.119 521.482 195.586C522.016 195.186 523.082 186.919 523.882 177.452C528.416 127.852 543.882 85.1858 569.616 51.7191C572.682 47.7191 574.549 44.2525 573.882 43.5858C570.816 40.9191 561.616 34.1191 561.082 34.1191C560.816 34.1191 557.482 38.1191 553.616 43.1858Z" fill="black"/>
<path d="M577.882 58.5191C560.016 80.9191 546.416 111.719 539.349 145.719C536.149 160.652 532.416 192.386 533.616 193.586C534.816 194.652 575.082 183.852 588.682 178.919C604.016 173.186 634.949 158.252 640.416 153.852L644.149 150.786L641.349 141.586C632.016 111.719 612.949 80.3858 591.082 59.1858L583.349 51.7191L577.882 58.5191Z" fill="black"/>
<path d="M299.616 64.6524C280.416 84.9191 264.149 112.252 255.349 139.319L251.616 150.652L255.482 153.586C261.082 158.119 292.149 173.186 306.816 178.652C317.482 182.519 343.482 189.852 359.082 193.319L362.949 194.252L362.016 183.852C357.749 133.852 343.882 93.1858 320.816 62.6524C317.082 57.7191 313.349 53.4524 312.549 53.1858C311.749 52.9191 305.882 58.1191 299.616 64.6524Z" fill="black"/>
<path d="M248.949 165.319C248.549 166.386 247.749 170.786 247.349 175.052L246.416 182.919L262.149 190.386C270.949 194.519 283.882 200.119 291.216 202.786C314.149 211.186 356.549 221.852 360.816 220.252C362.149 219.719 362.682 217.319 362.682 212.252V205.052L347.082 201.452C316.282 194.386 281.349 181.186 259.749 168.652C249.616 162.786 249.882 162.786 248.949 165.319Z" fill="black"/>
<path d="M635.349 169.052C614.016 181.452 580.282 194.252 549.082 201.452L533.349 205.186V213.186V221.186L540.282 220.252C551.482 218.786 586.016 209.452 602.549 203.586C610.949 200.519 624.949 194.652 633.749 190.519L649.616 182.919L648.682 175.052C647.749 166.652 646.949 163.452 645.482 163.586C645.082 163.586 640.549 165.986 635.349 169.052Z" fill="black"/>
<path d="M245.349 203.719C245.349 214.786 247.749 236.919 249.216 238.386C249.616 238.919 255.482 240.919 262.016 242.786C291.349 251.319 323.216 268.652 342.416 286.652C345.082 289.186 347.216 290.119 347.882 289.319C350.949 286.252 362.149 235.719 360.416 232.519C360.149 232.119 357.482 231.319 354.282 230.786C325.082 226.119 279.882 211.452 253.482 198.119L245.349 194.119V203.719Z" fill="black"/>
<path d="M635.349 201.586C613.749 211.986 575.882 224.252 548.416 229.586C542.016 230.786 536.282 232.252 535.749 232.652C534.549 233.719 538.016 254.386 542.149 270.652C548.949 297.319 562.149 325.586 576.682 344.119L583.349 352.652L591.216 345.052C616.416 320.519 636.149 285.319 644.682 249.719C650.149 226.919 652.682 195.319 649.082 195.586C648.149 195.586 642.016 198.252 635.349 201.586Z" fill="black"/>
<path d="M373.349 212.386C373.349 215.186 372.949 218.786 372.549 220.252C371.882 222.919 372.549 223.186 379.349 224.119C383.482 224.519 387.216 224.786 387.482 224.386C387.882 223.986 388.549 220.519 388.949 216.519L389.616 209.186L384.549 208.386C374.149 206.652 373.349 206.919 373.349 212.386Z" fill="black"/>
<path d="M510.416 208.386C506.816 208.919 506.682 209.319 506.682 216.252C506.682 224.652 507.749 225.586 516.682 224.252L522.682 223.319V215.319V207.452L518.416 207.586C516.016 207.719 512.416 208.119 510.416 208.386Z" fill="black"/>
<path d="M399.482 217.586C399.082 221.719 398.949 225.452 399.349 225.852C402.016 228.652 484.682 229.319 494.149 226.652C496.549 225.986 496.816 225.186 496.282 218.386C496.016 214.252 495.616 210.652 495.482 210.519C495.482 210.386 488.149 210.919 479.349 211.719C464.016 213.052 411.082 212.252 403.882 210.652C400.549 209.852 400.416 210.119 399.482 217.586Z" fill="black"/>
<path d="M371.482 235.719C371.216 236.652 370.282 242.252 369.349 248.119C367.616 260.386 362.682 280.519 358.816 291.852L356.149 299.586L361.749 305.852C364.816 309.319 367.482 312.386 367.749 312.786C368.682 314.119 370.816 308.919 375.349 295.052C381.616 275.319 389.082 237.452 386.816 236.252C386.416 235.986 382.816 235.319 379.082 234.786C373.749 234.119 371.882 234.252 371.482 235.719Z" fill="black"/>
<path d="M513.349 235.319C508.016 236.252 508.016 236.252 511.482 257.452C518.549 299.719 534.816 337.719 558.416 367.319L561.082 370.519L566.816 366.119C570.016 363.719 573.216 361.186 573.882 360.652C574.549 360.119 571.749 355.186 567.749 349.852C547.082 322.519 531.616 283.852 526.282 246.519C524.416 233.586 524.149 233.319 513.349 235.319Z" fill="black"/>
<path d="M398.282 237.719C398.016 238.386 397.216 242.652 396.816 247.452C394.682 266.786 386.949 296.919 379.216 315.852L376.149 323.719L381.349 331.452C389.749 343.719 399.749 365.052 404.949 381.319C412.149 403.852 410.549 401.719 420.949 403.052C437.082 404.919 468.816 404.252 483.349 401.586C501.349 398.252 521.882 391.452 538.416 383.319L552.016 376.519L549.349 373.052C523.082 338.919 505.616 296.386 499.882 252.119C497.749 235.586 498.282 236.519 491.749 237.719C484.416 239.052 411.749 239.052 404.416 237.719C401.349 237.186 398.549 237.186 398.282 237.719Z" fill="black"/>
<path d="M178.016 246.252C166.549 247.852 159.082 252.519 145.082 267.186C121.882 291.452 105.216 325.319 94.6824 369.452C89.2158 392.252 86.6824 412.652 85.7491 440.252L84.9491 464.386L90.8158 465.319C101.482 466.786 133.749 468.786 148.816 468.786H163.616L163.882 450.119C164.682 364.919 200.682 285.986 251.749 257.052L258.949 253.052L254.416 251.719C237.749 246.386 197.882 243.452 178.016 246.252Z" fill="black"/>
<path d="M126.416 259.986C105.216 268.652 104.549 269.186 96.6825 283.186C74.2825 322.786 61.0825 376.919 59.0825 436.919L58.2825 460.519L62.5491 461.319C64.8158 461.719 68.4158 462.386 70.4158 462.786L74.2825 463.586L75.0825 439.186C77.6158 365.719 99.7491 300.386 134.816 262.786C139.349 257.986 142.416 254.119 141.882 254.119C141.216 254.119 134.282 256.786 126.416 259.986Z" fill="black"/>
<path d="M267.482 261.452C255.482 266.386 243.749 274.786 232.016 286.919C205.616 314.386 186.816 355.719 178.682 404.386C175.749 421.452 173.482 453.319 174.416 463.319C174.949 468.386 175.349 468.919 177.882 468.252C179.349 467.852 182.816 467.452 185.482 467.452H190.282L190.549 451.052C191.482 369.052 229.482 295.186 283.349 269.852L292.549 265.586L286.549 263.052C283.349 261.719 279.482 259.986 277.882 259.452C276.016 258.652 272.682 259.319 267.482 261.452Z" fill="black"/>
<path d="M297.216 275.986C272.816 284.519 252.549 301.719 235.216 328.519C219.882 352.252 208.149 385.719 203.349 419.586C201.349 434.519 200.282 464.119 201.882 465.719C203.216 467.052 237.616 462.652 257.349 458.652C314.682 447.052 361.349 426.519 390.016 400.386L398.016 393.186L395.482 385.319C389.482 366.252 376.816 341.986 364.416 325.719C351.216 308.252 328.282 287.052 311.216 276.386L305.749 273.052L297.216 275.986Z" fill="black"/>
<path d="M74.0157 291.319C40.0157 319.452 16.949 356.119 6.14905 398.919C2.14905 414.252 -1.18429 444.119 0.815715 446.119C2.28238 447.586 33.0824 456.252 41.6157 457.452L47.6157 458.386L48.4157 435.186C50.1491 384.519 59.6157 339.586 76.5491 300.119C80.4157 290.919 83.6157 283.452 83.4824 283.452C83.4824 283.452 79.2157 287.052 74.0157 291.319Z" fill="black"/>
<path d="M390.016 414.119C354.282 444.252 287.482 467.986 216.816 475.586L201.082 477.319L201.882 483.186C202.282 486.519 202.682 489.986 202.682 490.919C202.682 493.319 207.749 493.319 228.282 490.652C299.616 481.719 366.282 457.719 399.882 429.186L404.416 425.319L402.682 415.719C401.882 410.386 400.682 406.119 400.282 406.252C399.749 406.252 395.216 409.852 390.016 414.119Z" fill="black"/>
<path d="M524.682 438.919C512.949 441.452 496.282 449.452 486.416 457.452C466.682 473.319 453.349 501.586 453.349 527.452C453.349 553.319 466.682 581.586 486.416 597.452C522.816 626.786 575.082 624.119 607.882 591.319C618.416 580.786 625.482 569.186 630.282 554.786C633.349 545.586 633.882 541.986 633.882 527.452C633.882 513.052 633.349 509.319 630.282 500.119C615.482 455.186 570.682 429.319 524.682 438.919Z" fill="black"/>
<path d="M401.349 441.452C398.149 445.319 377.749 457.452 360.816 465.452C323.216 483.452 277.082 495.719 225.749 501.586C202.282 504.252 203.749 502.919 207.482 518.919C218.416 566.519 242.282 606.252 272.549 627.586L281.616 633.986L286.549 631.986C302.549 625.452 326.682 608.786 343.216 592.919C380.949 556.519 402.282 509.052 404.949 455.719C405.749 439.452 405.082 436.919 401.349 441.452Z" fill="black"/>
<path d="M0.415746 462.119C0.94908 464.519 1.34908 468.519 1.34908 470.919C1.34908 474.519 2.01575 475.719 4.41575 476.652C8.14908 478.119 35.4824 484.252 43.7491 485.586L49.3491 486.519V480.252C49.3491 472.786 47.4824 468.786 44.0157 468.786C41.8824 468.786 15.7491 462.386 2.81575 458.652C-0.250921 457.719 -0.384254 457.986 0.415746 462.119Z" fill="black"/>
<path d="M59.8825 472.652C59.6158 474.252 60.2825 488.119 60.5491 488.386C60.8158 488.652 64.5491 489.186 68.9491 489.586L76.9491 490.519L76.2825 482.652C76.0158 478.252 75.6158 474.652 75.4825 474.519C74.8158 473.719 60.0158 471.986 59.8825 472.652Z" fill="black"/>
<path d="M87.0825 483.452C87.4825 487.986 88.0158 491.852 88.2825 492.119C89.2158 493.052 133.749 495.452 149.216 495.452H165.749L164.816 489.319C164.416 485.852 164.016 482.252 164.016 481.319C164.016 479.852 160.682 479.452 148.416 479.452C131.882 479.452 96.8158 477.319 90.1491 475.986L86.2825 475.186L87.0825 483.452Z" fill="black"/>
<path d="M176.816 479.052C174.816 479.586 174.549 480.519 175.216 484.519C175.616 487.319 176.016 490.786 176.016 492.386C176.016 495.052 176.416 495.186 183.749 494.519C187.882 494.119 191.482 493.586 191.749 493.319C192.016 493.186 191.882 489.719 191.349 485.586L190.416 478.119L184.816 478.252C181.882 478.386 178.282 478.652 176.816 479.052Z" fill="black"/>
<path d="M4.94906 491.852C6.6824 501.052 15.0824 524.652 20.6824 536.119C30.6824 556.786 41.7491 571.986 60.1491 590.386C69.4824 599.852 77.7491 607.452 78.5491 607.452C79.2157 607.452 78.4157 604.252 76.6824 600.386C67.4824 580.519 56.8157 541.586 52.6824 513.452C51.4824 505.452 50.2824 498.652 50.1491 498.386C49.8824 498.119 40.1491 495.852 28.5491 493.452C16.9491 490.919 6.6824 488.519 5.74906 488.252C4.54906 487.719 4.2824 488.786 4.94906 491.852Z" fill="black"/>
<path d="M61.8824 503.719C62.2824 506.119 63.6157 513.852 64.6824 520.786C69.6157 550.786 79.349 582.119 91.349 606.786C98.0157 620.386 98.949 621.719 105.082 625.052C111.216 628.519 132.816 638.119 134.282 638.119C134.682 638.119 132.549 635.319 129.616 631.719C108.816 606.786 90.149 563.719 81.749 520.919C79.0824 507.586 77.4824 501.986 76.0157 501.586C74.949 501.319 71.0824 500.652 67.6157 500.119L61.2157 499.319L61.8824 503.719Z" fill="black"/>
<path d="M89.3491 504.119C89.3491 509.186 97.2158 541.852 101.882 555.852C112.282 587.586 126.949 613.852 144.816 632.652C155.482 643.986 157.482 645.186 170.682 647.586C181.749 649.586 221.616 650.119 229.882 648.386L234.949 647.319L229.616 642.652C223.349 637.319 210.016 621.052 203.349 610.652C187.082 585.186 173.749 548.252 167.482 511.319L166.682 506.519L136.282 505.586C119.616 505.186 102.282 504.386 97.7491 503.852C93.0825 503.452 89.3491 503.586 89.3491 504.119Z" fill="black"/>
<path d="M179.082 505.852C175.482 508.119 186.816 552.786 196.949 576.119C206.682 598.252 216.949 613.719 232.949 629.852C249.482 646.519 246.816 645.586 262.549 640.919L269.749 638.786L264.149 635.052C249.616 625.319 227.882 598.919 217.216 577.719C207.882 559.319 200.549 537.852 196.149 516.119L193.882 505.452L187.349 505.052C183.616 504.919 180.016 505.186 179.082 505.852Z" fill="black"/>
</svg>
